{"accessors":[{"bufferView":2,"componentType":5126,"count":1113,"max":[12.950957298278809,0.04410288482904434,12.938075065612793],"min":[-12.950956344604492,-0.7905502319335938,-12.955251693725586],"type":"VEC3"},{"bufferView":2,"byteOffset":13356,"componentType":5126,"count":1113,"max":[0.9948754906654358,0.9948830604553223,0.9938862919807434],"min":[-0.9948722124099731,-0.9948830604553223,-0.9952046871185303],"type":"VEC3"},{"bufferView":1,"componentType":5126,"count":1113,"max":[1,1],"min":[4.917383193969727e-7,0.01031823456287384],"type":"VEC2"},{"bufferView":0,"componentType":5125,"count":3648,"type":"SCALAR"},{"bufferView":2,"byteOffset":26712,"componentType":5126,"count":1984,"max":[0.9999997019767761,1,0.9999994039535522],"min":[-0.9999990463256836,-1,-0.9999987483024597],"type":"VEC3"},{"bufferView":2,"byteOffset":50520,"componentType":5126,"count":1984,"max":[0.9904384613037109,0.99513840675354,0.9904385805130005],"min":[-0.9904386401176453,-0.9951384663581848,-0.9904389381408691],"type":"VEC3"},{"bufferView":1,"byteOffset":8904,"componentType":5126,"count":1984,"max":[1.0000001192092896,1],"min":[0,0],"type":"VEC2"},{"bufferView":0,"byteOffset":14592,"componentType":5125,"count":2880,"type":"SCALAR"},{"bufferView":2,"byteOffset":74328,"componentType":5126,"count":199,"max":[1.5696943998336792,1.4711190462112427,1.4554961919784546],"min":[-1.5696943998336792,-1.4711190462112427,-1.4554961919784546],"type":"VEC3"},{"bufferView":2,"byteOffset":76716,"componentType":5126,"count":199,"max":[0.9999085664749146,0.9947943687438965,0.9888310432434082],"min":[-0.9999085664749146,-0.9947943687438965,-0.9888310432434082],"type":"VEC3"},{"bufferView":1,"byteOffset":24776,"componentType":5126,"count":199,"max":[0.8750000596046448,1],"min":[0.125,0],"type":"VEC2"},{"bufferView":0,"byteOffset":26112,"componentType":5125,"count":900,"type":"SCALAR"},{"bufferView":2,"byteOffset":79104,"componentType":5126,"count":1984,"max":[0.9999997019767761,1,0.9999994039535522],"min":[-0.9999990463256836,-1,-0.9999987483024597],"type":"VEC3"},{"bufferView":2,"byteOffset":102912,"componentType":5126,"count":1984,"max":[0.9904384613037109,0.99513840675354,0.9904385805130005],"min":[-0.9904386401176453,-0.9951384663581848,-0.9904389381408691],"type":"VEC3"},{"bufferView":1,"byteOffset":26368,"componentType":5126,"count":1984,"max":[1.0000001192092896,1],"min":[0,0],"type":"VEC2"},{"bufferView":0,"byteOffset":29712,"componentType":5125,"count":2880,"type":"SCALAR"},{"bufferView":2,"byteOffset":126720,"componentType":5126,"count":1984,"max":[0.9999997019767761,1,0.9999994039535522],"min":[-0.9999990463256836,-1,-0.9999987483024597],"type":"VEC3"},{"bufferView":2,"byteOffset":150528,"componentType":5126,"count":1984,"max":[0.9904384613037109,0.99513840675354,0.9904385805130005],"min":[-0.9904386401176453,-0.9951384663581848,-0.9904389381408691],"type":"VEC3"},{"bufferView":1,"byteOffset":42240,"componentType":5126,"count":1984,"max":[1.0000001192092896,1],"min":[0,0],"type":"VEC2"},{"bufferView":0,"byteOffset":41232,"componentType":5125,"count":2880,"type":"SCALAR"},{"bufferView":2,"byteOffset":174336,"componentType":5126,"count":6570,"max":[1.3771899938583374,-0.0006015300750732422,1.3762335777282715],"min":[-1.3771899938583374,-3.7450010776519775,-1.3775088787078857],"type":"VEC3"},{"bufferView":2,"byteOffset":253176,"componentType":5126,"count":6570,"max":[0.9958569407463074,1,0.9960867762565613],"min":[-0.9958568215370178,-1,-0.9951650500297546],"type":"VEC3"},{"bufferView":1,"byteOffset":58112,"componentType":5126,"count":6570,"max":[1.4907358884811401,0.998115599155426],"min":[0.011522233486175537,0.19632118940353394],"type":"VEC2"},{"bufferView":0,"byteOffset":52752,"componentType":5125,"count":10062,"type":"SCALAR"},{"bufferView":2,"byteOffset":332016,"componentType":5126,"count":330,"max":[1.5658119916915894,1.4676285982131958,1.4529191255569458],"min":[-1.5658133029937744,-1.4676482677459717,-1.452921748161316],"type":"VEC3"},{"bufferView":2,"byteOffset":335976,"componentType":5126,"count":330,"max":[0.9953747391700745,0.9852411150932312,0.998313307762146],"min":[-0.9953896999359131,-0.985173761844635,-0.9983499050140381],"type":"VEC3"},{"bufferView":1,"byteOffset":110672,"componentType":5126,"count":330,"max":[0.8730682134628296,1],"min":[0.125,0.0019318138947710395],"type":"VEC2"},{"bufferView":0,"byteOffset":93000,"componentType":5125,"count":1284,"type":"SCALAR"},{"bufferView":2,"byteOffset":339936,"componentType":5126,"count":6570,"max":[1.4502009153366089,-0.0099029541015625,1.4398367404937744],"min":[-1.2807124853134155,-3.7549545764923096,-1.2904444932937622],"type":"VEC3"},{"bufferView":2,"byteOffset":418776,"componentType":5126,"count":6570,"max":[0.9958564043045044,1,0.9960870146751404],"min":[-0.9958558678627014,-1,-0.9951652884483337],"type":"VEC3"},{"bufferView":1,"byteOffset":113312,"componentType":5126,"count":6570,"max":[1.4907358884811401,0.998115599155426],"min":[0.011522233486175537,0.19632118940353394],"type":"VEC2"},{"bufferView":0,"byteOffset":98136,"componentType":5125,"count":10062,"type":"SCALAR"},{"bufferView":2,"byteOffset":497616,"componentType":5126,"count":6570,"max":[1.4483743906021118,0.0006265640258789062,1.2781684398651123],"min":[-1.3071337938308716,-3.7702484130859375,-1.4767018556594849],"type":"VEC3"},{"bufferView":2,"byteOffset":576456,"componentType":5126,"count":6570,"max":[0.9958567023277283,1,0.9960867762565613],"min":[-0.9958562254905701,-1,-0.9951651096343994],"type":"VEC3"},{"bufferView":1,"byteOffset":165872,"componentType":5126,"count":6570,"max":[1.4907358884811401,0.998115599155426],"min":[0.011522233486175537,0.19632118940353394],"type":"VEC2"},{"bufferView":0,"byteOffset":138384,"componentType":5125,"count":10062,"type":"SCALAR"},{"bufferView":2,"byteOffset":655296,"componentType":5126,"count":24,"max":[1,1,1],"min":[-1,-1,-1],"type":"VEC3"},{"bufferView":2,"byteOffset":655584,"componentType":5126,"count":24,"max":[1,1,1],"min":[-1,-1,-1],"type":"VEC3"},{"bufferView":1,"byteOffset":218432,"componentType":5126,"count":24,"max":[0.875,1],"min":[0.125,0],"type":"VEC2"},{"bufferView":0,"byteOffset":178632,"componentType":5125,"count":36,"type":"SCALAR"},{"bufferView":3,"componentType":5126,"count":199,"max":[15],"min":[0.02500000037252903],"type":"SCALAR"},{"bufferView":4,"componentType":5126,"count":199,"max":[1,1,1],"min":[0.07444798946380615,0.07444798946380615,0.07444798946380615],"type":"VEC3"},{"bufferView":3,"byteOffset":796,"componentType":5126,"count":600,"max":[15],"min":[0.02500000037252903],"type":"SCALAR"},{"bufferView":4,"byteOffset":2388,"componentType":5126,"count":600,"max":[3.129075050354004,10.657997131347656,3.9055004119873047],"min":[-6.338522911071777,4.5985260009765625,-3.222348690032959],"type":"VEC3"},{"bufferView":3,"byteOffset":3196,"componentType":5126,"count":600,"max":[15],"min":[0.02500000037252903],"type":"SCALAR"},{"bufferView":5,"componentType":5126,"count":600,"max":[0.9999827742576599,0.7697990536689758,0.7697925567626953,1],"min":[-0.9995701909065247,-0.7042980790138245,-0.7697925567626953,-0.00786608550697565],"type":"VEC4"},{"bufferView":3,"byteOffset":5596,"componentType":5126,"count":163,"max":[15],"min":[0.02500000037252903],"type":"SCALAR"},{"bufferView":4,"byteOffset":9588,"componentType":5126,"count":163,"max":[1,1,1],"min":[0.07444798946380615,0.07444798946380615,0.07444798946380615],"type":"VEC3"},{"bufferView":3,"byteOffset":6248,"componentType":5126,"count":203,"max":[15],"min":[0.02500000037252903],"type":"SCALAR"},{"bufferView":4,"byteOffset":11544,"componentType":5126,"count":203,"max":[1,1,1],"min":[0.07444798946380615,0.07444798946380615,0.07444798946380615],"type":"VEC3"},{"bufferView":3,"byteOffset":7060,"componentType":5126,"count":199,"max":[15],"min":[0.02500000037252903],"type":"SCALAR"},{"bufferView":4,"byteOffset":13980,"componentType":5126,"count":199,"max":[10.357553482055664,16.005170822143555,10.357553482055664],"min":[1.000000013351432e-10,1.000000013351432e-10,1.000000013351432e-10],"type":"VEC3"},{"bufferView":3,"byteOffset":7856,"componentType":5126,"count":600,"max":[15],"min":[0.02500000037252903],"type":"SCALAR"},{"bufferView":4,"byteOffset":16368,"componentType":5126,"count":600,"max":[2.4762134552001953,8.091005325317383,7.178069591522217],"min":[-4.886408805847168,0.9053211212158203,-2.1660242080688477],"type":"VEC3"},{"bufferView":3,"byteOffset":10256,"componentType":5126,"count":600,"max":[15],"min":[0.02500000037252903],"type":"SCALAR"},{"bufferView":5,"byteOffset":9600,"componentType":5126,"count":600,"max":[0.9999827742576599,0.7697990536689758,0.7697925567626953,1],"min":[-0.9995701909065247,-0.7042980790138245,-0.7697925567626953,-0.00786608550697565],"type":"VEC4"},{"bufferView":3,"byteOffset":12656,"componentType":5126,"count":163,"max":[15],"min":[0.02500000037252903],"type":"SCALAR"},{"bufferView":4,"byteOffset":23568,"componentType":5126,"count":163,"max":[10.357553482055664,16.005170822143555,10.357553482055664],"min":[1.000000013351432e-10,1.000000013351432e-10,1.000000013351432e-10],"type":"VEC3"},{"bufferView":3,"byteOffset":13308,"componentType":5126,"count":203,"max":[15],"min":[0.02500000037252903],"type":"SCALAR"},{"bufferView":4,"byteOffset":25524,"componentType":5126,"count":203,"max":[10.357553482055664,16.005170822143555,10.357553482055664],"min":[1.000000013351432e-10,1.000000013351432e-10,1.000000013351432e-10],"type":"VEC3"}],"animations":[{"channels":[{"sampler":0,"target":{"node":5,"path":"scale"}},{"sampler":1,"target":{"node":7,"path":"translation"}},{"sampler":2,"target":{"node":7,"path":"rotation"}},{"sampler":3,"target":{"node":9,"path":"scale"}},{"sampler":4,"target":{"node":11,"path":"scale"}},{"sampler":5,"target":{"node":13,"path":"scale"}},{"sampler":6,"target":{"node":15,"path":"translation"}},{"sampler":7,"target":{"node":15,"path":"rotation"}},{"sampler":8,"target":{"node":17,"path":"scale"}},{"sampler":9,"target":{"node":19,"path":"scale"}}],"name":"Animation","samplers":[{"input":40,"interpolation":"LINEAR","output":41},{"input":42,"interpolation":"LINEAR","output":43},{"input":44,"interpolation":"LINEAR","output":45},{"input":46,"interpolation":"LINEAR","output":47},{"input":48,"interpolation":"LINEAR","output":49},{"input":50,"interpolation":"LINEAR","output":51},{"input":52,"interpolation":"LINEAR","output":53},{"input":54,"interpolation":"LINEAR","output":55},{"input":56,"interpolation":"LINEAR","output":57},{"input":58,"interpolation":"LINEAR","output":59}]}],"asset":{"extras":{"author":"Tycho Magnetic Anomaly (https://sketchfab.com/Tycho_Magnetic_Anomaly)","license":"CC-BY-4.0 (http://creativecommons.org/licenses/by/4.0/)","source":"https://sketchfab.com/3d-models/light-test-3-color-change-photosensitivity-507f9ff643c04ac38c417f0bf3d7cd89","title":"Light Test 3 - Color Change (Photosensitivity)"},"generator":"Sketchfab-11.71.0","version":"2.0"},"bufferViews":[{"buffer":0,"byteLength":178776,"name":"floatBufferViews","target":34963},{"buffer":0,"byteLength":218624,"byteOffset":178776,"byteStride":8,"name":"floatBufferViews","target":34962},{"buffer":0,"byteLength":655872,"byteOffset":397400,"byteStride":12,"name":"floatBufferViews","target":34962},{"buffer":0,"byteLength":14120,"byteOffset":1053272,"name":"floatBufferViews"},{"buffer":0,"byteLength":27960,"byteOffset":1067392,"byteStride":12,"name":"floatBufferViews"},{"buffer":0,"byteLength":19200,"byteOffset":1095352,"byteStride":16,"name":"floatBufferViews"}],"buffers":[{"byteLength":1114552,"uri":"data:application/octet-stream;base64,"}],"extensionsUsed":["KHR_materials_clearcoat"],"images":[{"uri":"data:application/octet-stream;base64,"},{"uri":"data:application/octet-stream;base64,"},{"uri":"data:application/octet-stream;base64,"}],"materials":[{"doubleSided":true,"extensions":{"KHR_materials_clearcoat":{"clearcoatFactor":0.4916770223,"clearcoatRoughnessFactor":0.3220971407}},"name":"Material.002","pbrMetallicRoughness":{"baseColorFactor":[0.1790150717,0.1790150717,0.1790150717,1],"metallicFactor":0,"roughnessFactor":0.4853962859}},{"doubleSided":true,"name":"Material.001","pbrMetallicRoughness":{"baseColorFactor":[0,0,0,1],"metallicFactor":0,"roughnessFactor":0}},{"extensions":{"KHR_materials_clearcoat":{"clearcoatFactor":0.9627322488,"clearcoatRoughnessFactor":0.8433982581}},"name":"Material.003","pbrMetallicRoughness":{"baseColorFactor":[0.8,0.8,0.8,1],"metallicFactor":0,"roughnessFactor":0.5}},{"alphaMode":"BLEND","name":"grad","pbrMetallicRoughness":{"baseColorFactor":[0.7076012527,1,0,1],"baseColorTexture":{"index":0},"metallicFactor":0,"roughnessFactor":0}},{"alphaMode":"BLEND","doubleSided":true,"name":"Material.004","pbrMetallicRoughness":{"baseColorFactor":[0.8,0.8,0.8,0.3032549317],"metallicFactor":0.5544843858,"roughnessFactor":0.5858880676}},{"alphaMode":"BLEND","name":"grad3","pbrMetallicRoughness":{"baseColorFactor":[1,0,0.2438378681,1],"baseColorTexture":{"index":1},"metallicFactor":0,"roughnessFactor":0}},{"alphaMode":"BLEND","name":"grad2","pbrMetallicRoughness":{"baseColorFactor":[0.5830405018,0.6179665959,1,1],"baseColorTexture":{"index":2},"metallicFactor":0.290693459,"roughnessFactor":0.8559597308}},{"alphaMode":"BLEND","doubleSided":true,"name":"cam_focus","pbrMetallicRoughness":{"baseColorFactor":[0,0,0,0],"metallicFactor":0,"roughnessFactor":0}}],"meshes":[{"name":"Object_0","primitives":[{"attributes":{"NORMAL":1,"POSITION":0,"TEXCOORD_0":2},"indices":3,"material":0,"mode":4}]},{"name":"Object_1","primitives":[{"attributes":{"NORMAL":5,"POSITION":4,"TEXCOORD_0":6},"indices":7,"material":1,"mode":4}]},{"name":"Object_2","primitives":[{"attributes":{"NORMAL":9,"POSITION":8,"TEXCOORD_0":10},"indices":11,"material":2,"mode":4}]},{"name":"Object_3","primitives":[{"attributes":{"NORMAL":13,"POSITION":12,"TEXCOORD_0":14},"indices":15,"material":1,"mode":4}]},{"name":"Object_4","primitives":[{"attributes":{"NORMAL":17,"POSITION":16,"TEXCOORD_0":18},"indices":19,"material":1,"mode":4}]},{"name":"Object_5","primitives":[{"attributes":{"NORMAL":21,"POSITION":20,"TEXCOORD_0":22},"indices":23,"material":3,"mode":4}]},{"name":"Object_6","primitives":[{"attributes":{"NORMAL":25,"POSITION":24,"TEXCOORD_0":26},"indices":27,"material":4,"mode":4}]},{"name":"Object_7","primitives":[{"attributes":{"NORMAL":29,"POSITION":28,"TEXCOORD_0":30},"indices":31,"material":5,"mode":4}]},{"name":"Object_8","primitives":[{"attributes":{"NORMAL":33,"POSITION":32,"TEXCOORD_0":34},"indices":35,"material":6,"mode":4}]},{"name":"Object_9","primitives":[{"attributes":{"NORMAL":37,"POSITION":36,"TEXCOORD_0":38},"indices":39,"material":7,"mode":4}]}],"nodes":[{"children":[1],"matrix":[1,0,0,0,0,2.220446049250313e-16,-1,0,0,1,2.220446049250313e-16,0,0,0,0,1],"name":"Sketchfab_model"},{"children":[2],"name":"root"},{"children":[3,5,7,9,11,13,15,17,19,21],"matrix":[1,0,0,0,0,2.220446049250313e-16,1,0,0,-1,2.220446049250313e-16,0,0,0,0,1],"name":"GLTF_SceneRootNode"},{"children":[4],"matrix":[1,0,0,0,0,1,0,0,0,0,1,0,0,-1.8706327676773071,0,1],"name":"Cube_0"},{"mesh":0,"name":"Object_4"},{"children":[6],"name":"Sphere_1","translation":[0,20.26845932006836,0]},{"mesh":1,"name":"Object_6"},{"children":[8],"name":"Cube.001_2","translation":[0,4.5985260009765625,-3.222348690032959]},{"mesh":2,"name":"Object_8"},{"children":[10],"name":"Sphere.001_3","translation":[-0.04936949908733368,20.316238403320312,-1.6817373037338257]},{"mesh":3,"name":"Object_10"},{"children":[12],"name":"Sphere.002_4","translation":[0.06821229308843613,20.244300842285156,1.5855883359909058]},{"mesh":4,"name":"Object_12"},{"children":[14],"name":"shaft_5","scale":[1.000000013351432e-10,1.000000013351432e-10,1.000000013351432e-10],"translation":[0,49.746639251708984,0]},{"mesh":5,"name":"Object_14"},{"children":[16],"name":"Cube.002_6","translation":[-4.680811405181885,7.539859771728516,7.178069591522217]},{"mesh":6,"name":"Object_16"},{"children":[18],"name":"shaft.001_7","scale":[1.000000013351432e-10,1.000000013351432e-10,1.000000013351432e-10],"translation":[-0.6223601698875427,50.17396545410156,-0.7729451060295105]},{"mesh":7,"name":"Object_18"},{"children":[20],"name":"shaft.002_8","scale":[1.000000013351432e-10,1.000000013351432e-10,1.000000013351432e-10],"translation":[-0.535677969455719,50.173980712890625,0.9994681477546692]},{"mesh":8,"name":"Object_20"},{"children":[22],"matrix":[0.23608887195587158,0,0,0,0,0.23608887195587158,0,0,0,0,0.23608887195587158,0,0.39692971110343933,-0.0722726583480835,-0.08543151617050171,1],"name":"cam_focus_9"},{"mesh":9,"name":"Object_22"}],"samplers":[{"magFilter":9729,"minFilter":9987,"wrapS":10497,"wrapT":10497}],"scene":0,"scenes":[{"name":"Sketchfab_Scene","nodes":[0]}],"textures":[{"sampler":0,"source":0},{"sampler":0,"source":1},{"sampler":0,"source":2}]}